<svg version="1.1" id="Layer_1" xmlns="http://www.w3.org/2000/svg" xmlns:xlink="http://www.w3.org/1999/xlink" x="0px" y="0px"
	 width="100%" viewBox="0 0 832 848" enable-background="new 0 0 832 848" xml:space="preserve">
<path  opacity="1.000000" stroke="none" 
	d="
M217.468277,849.000000 
	C222.323944,839.433716 228.356369,830.414917 236.671478,823.111572 
	C244.125031,816.565002 251.357300,809.756348 258.978271,803.413025 
	C270.655548,793.693237 281.891876,783.499329 292.409119,772.559570 
	C301.918915,762.667786 310.937042,752.305298 320.297363,742.267273 
	C332.121979,729.586609 341.534454,715.378113 348.475830,699.471802 
	C350.960663,693.777710 354.346161,691.904297 357.670563,693.472351 
	C363.880219,696.401306 366.485321,702.067200 363.710724,707.593811 
	C356.323914,722.307068 348.373627,736.718018 338.586243,750.002258 
	C330.576843,760.873291 322.329224,771.590576 312.828735,781.217773 
	C304.957306,789.194031 296.656830,796.736938 288.455536,804.380737 
	C274.439819,817.443481 259.711945,829.677124 245.560745,842.567688 
	C242.829636,845.055481 239.813400,846.975952 236.268951,848.788025 
	C229.978851,849.000000 223.957703,849.000000 217.468277,849.000000 
z"/>
<path  opacity="1.000000" stroke="none" 
	d="
M432.463196,849.000000 
	C428.942841,841.835327 426.805908,834.383667 426.931122,826.582703 
	C427.138855,813.646667 425.449493,800.734253 424.062683,788.057312 
	C422.256561,771.547729 420.594177,755.074463 419.239532,738.514771 
	C418.638000,731.161377 417.838287,723.784363 417.620300,716.375305 
	C417.501068,712.323792 418.491852,708.392517 417.939423,704.196594 
	C417.188995,698.496155 420.372131,695.758240 426.118439,695.692017 
	C436.234833,695.575500 436.673035,695.959595 437.703003,706.377197 
	C437.931824,708.691345 438.122742,711.027039 438.076111,713.347717 
	C437.804626,726.860901 440.046570,740.240906 440.904236,753.669739 
	C441.540527,763.631958 441.417480,773.933411 443.343689,783.663574 
	C445.971069,796.935974 444.467224,810.130188 445.472534,823.305664 
	C445.788147,827.442261 447.033966,831.513550 447.239349,835.776306 
	C447.451202,840.173523 447.616913,844.376648 445.120605,848.639648 
	C440.975464,849.000000 436.950897,849.000000 432.463196,849.000000 
z"/>
<path  opacity="1.000000" stroke="none" 
	d="
M407.661133,384.489502 
	C409.341736,393.512543 414.613739,400.125824 420.016754,406.499451 
	C430.815216,419.237762 432.432495,433.743713 429.138397,449.383026 
	C429.035522,449.871613 428.795227,450.349030 428.781830,450.836121 
	C428.411804,464.325928 423.293030,477.521271 425.590271,491.078857 
	C426.545868,496.718506 429.217255,502.236847 431.938782,507.370087 
	C436.599487,516.160767 444.030579,522.552246 452.196625,528.010437 
	C459.961151,533.200256 467.982819,532.758850 475.984406,528.409912 
	C478.034760,527.295532 480.060944,526.139832 483.211090,527.063354 
	C482.454895,532.708618 479.415405,537.446655 476.583038,542.023499 
	C472.336029,548.886292 468.439545,555.879944 465.444580,563.357239 
	C463.901001,567.210999 466.294556,575.757935 469.362213,578.668457 
	C472.483765,581.630005 475.384308,581.105713 477.960388,578.118713 
	C480.480103,575.197144 481.590057,571.485291 483.045868,567.983521 
	C483.529694,566.819824 483.449249,565.278809 485.138550,564.798950 
	C487.073242,565.818359 487.192230,567.856201 487.197418,569.519958 
	C487.232269,580.662354 487.446350,591.765320 479.008636,600.870911 
	C470.859161,609.665527 466.571747,620.331299 463.970581,632.092285 
	C462.722321,637.736145 462.393250,643.183472 462.359009,648.768066 
	C462.263916,664.269104 452.980042,679.255371 438.214966,683.380066 
	C430.590027,685.510071 422.757477,687.463257 413.933868,685.067139 
	C405.968262,682.903992 396.928253,683.158264 388.361755,685.831787 
	C380.397797,688.317261 372.467560,686.700562 365.249023,682.785034 
	C359.050751,679.422852 353.017761,678.388184 346.164124,680.699036 
	C339.064606,683.092957 332.382202,679.893677 326.250824,677.053528 
	C317.992340,673.228027 311.774750,666.901184 308.763977,657.603455 
	C315.167053,655.559631 321.306396,653.859192 327.252991,651.641785 
	C336.449982,648.212402 343.068146,641.981506 346.793060,632.725220 
	C350.805939,622.753296 348.908447,613.478943 344.458374,604.147034 
	C340.714355,596.295715 341.469452,587.686035 341.206573,579.231812 
	C340.797180,566.066956 348.616028,556.851624 355.563293,547.077637 
	C359.781708,541.142883 362.498718,534.418823 363.593018,527.245544 
	C364.363281,522.196045 367.276703,518.128174 369.015411,513.555603 
	C374.898621,498.083710 380.226624,482.337280 387.912689,467.615814 
	C393.146393,457.591461 397.760468,447.425049 397.960754,435.891785 
	C398.090149,428.437805 397.742645,420.976746 397.710693,413.518433 
	C397.656464,400.853699 397.749786,388.188080 397.653656,375.523804 
	C397.576660,365.384369 400.389038,356.066620 405.203278,347.258545 
	C405.525421,346.669220 405.832275,346.071533 406.426025,344.948486 
	C409.169220,348.853455 408.114258,351.890808 407.490021,355.041351 
	C405.573822,364.712891 405.512604,374.423065 407.661133,384.489502 
z"/>
<path  opacity="1.000000" stroke="none" 
	d="
M442.227295,236.685013 
	C444.852386,231.925873 443.823059,226.832138 445.372894,222.218903 
	C446.122650,219.987198 443.515167,218.979553 441.543915,218.476608 
	C425.226868,214.313431 416.224182,198.086029 421.487305,182.256210 
	C423.886444,175.040512 423.790131,175.414398 431.193909,177.321609 
	C436.414734,178.666519 442.031097,178.019623 447.179352,180.461929 
	C449.173553,181.407959 450.994019,180.376968 451.845856,177.522827 
	C455.922424,163.864456 457.773407,149.720230 461.234467,135.946335 
	C463.883942,125.402466 464.668701,114.492264 468.243744,104.100899 
	C469.638245,100.047554 469.000427,95.335930 470.616455,91.013008 
	C474.753265,79.946724 474.797211,67.978935 478.008667,56.586063 
	C481.032043,45.860294 481.832764,34.421009 480.577209,23.065176 
	C479.670288,14.862511 481.320404,11.990582 488.428528,8.281049 
	C495.012299,4.845148 501.439240,6.707223 506.209534,13.432727 
	C510.303131,19.204203 509.474243,25.303391 503.688202,30.645760 
	C499.905426,34.138447 499.807007,38.780712 499.028961,43.368961 
	C497.941650,49.780701 496.322937,56.102413 494.926941,62.461613 
	C494.750275,63.266365 494.394653,64.061356 494.375977,64.866737 
	C494.168182,73.837311 490.443909,82.228630 489.753632,90.993416 
	C489.242523,97.483147 488.166656,103.838150 486.567139,109.966309 
	C484.222961,118.947418 484.215790,128.221695 481.981171,137.177353 
	C480.240814,144.152191 478.173553,151.228897 477.866638,158.330154 
	C477.507812,166.631088 473.412140,174.208557 474.191437,182.638046 
	C474.487152,185.836792 475.233124,187.423401 478.734131,187.714890 
	C489.161163,188.583069 496.146881,194.721405 501.314453,203.312469 
	C503.014832,206.139404 505.329620,208.913315 505.964325,211.999222 
	C507.308533,218.534760 504.424561,224.749863 500.697693,229.494919 
	C498.395508,232.426071 493.016327,230.244202 488.986023,229.454620 
	C483.498505,228.379501 478.401276,225.823730 472.775177,225.337875 
	C470.050690,225.102585 467.888306,226.222488 467.652557,228.922913 
	C466.803253,238.653030 463.248627,247.807343 461.894135,257.484711 
	C461.127411,262.962585 460.697632,268.835297 458.085144,274.273132 
	C455.940002,278.738129 456.873291,284.223175 455.639954,289.286865 
	C454.063507,295.759155 451.287506,302.102264 450.889160,308.664276 
	C450.491272,315.218353 448.117096,321.192444 447.127441,327.542969 
	C445.615631,337.244385 443.939392,346.976959 441.240112,356.519012 
	C439.046204,364.274445 435.576569,371.486267 433.029358,379.074646 
	C431.173248,384.604095 428.670258,390.000885 425.169128,394.818939 
	C424.347656,395.949371 423.398590,396.210571 422.178619,396.072632 
	C420.817688,395.918793 420.096466,395.022278 419.919281,393.774933 
	C419.732849,392.462677 419.683136,391.122253 419.680786,389.793915 
	C419.662720,379.462463 419.541534,369.128876 419.712799,358.800232 
	C419.839966,351.132385 421.572052,343.687653 424.022736,336.453247 
	C425.263977,332.789185 425.018555,328.939819 425.701752,325.215179 
	C426.857391,318.914886 428.731201,312.767212 429.990723,306.509369 
	C431.336426,299.823242 430.255981,292.571564 434.016510,286.360413 
	C434.498505,285.564331 434.588409,284.438934 434.598816,283.463318 
	C434.714569,272.633087 438.195038,262.363312 440.135193,251.856812 
	C441.045807,246.925491 441.321442,241.995163 442.227295,236.685013 
z"/>
<path  opacity="1.000000" stroke="none" 
	d="
M334.445435,343.730286 
	C336.589722,350.864197 340.988800,356.307526 344.667633,362.150787 
	C351.709137,373.335205 362.057953,381.778625 369.721924,392.460327 
	C376.159058,401.432129 383.403687,410.106323 385.659943,421.151855 
	C387.059967,428.005646 387.271027,435.170013 384.987030,442.279236 
	C383.374664,447.297943 381.989166,452.301788 379.685608,457.113922 
	C372.704346,471.697815 364.380066,485.496643 351.593994,495.481567 
	C344.138092,501.304016 337.251434,507.109619 332.625885,515.394348 
	C331.882965,516.725098 330.628235,517.602783 328.262695,517.776489 
	C326.963684,514.224915 325.071899,510.710022 324.635040,506.607147 
	C324.495880,505.300293 324.336182,503.960541 323.921936,502.724274 
	C322.301880,497.889862 319.227478,495.706940 313.805389,496.209259 
	C310.090088,496.553436 305.997650,497.309753 301.563751,494.780212 
	C306.452057,491.764160 311.270203,490.655212 315.554718,488.376312 
	C327.314484,482.121429 335.150726,472.906830 339.045776,460.315765 
	C342.647675,448.672272 344.834778,436.621094 343.404724,424.549011 
	C341.786713,410.890442 338.458801,397.587067 332.431061,384.890015 
	C328.085266,375.735901 323.428070,366.417847 320.806458,356.687042 
	C316.330811,340.074524 312.526245,322.994629 315.250427,305.637695 
	C316.961243,294.737183 318.436707,283.741364 321.520508,273.036499 
	C325.340454,259.776215 330.248077,246.955856 335.324585,234.151703 
	C338.848816,225.262848 343.125122,216.734604 346.882355,207.964661 
	C347.690582,206.078140 348.640259,204.078079 351.246796,202.910309 
	C353.739502,207.844818 350.344147,211.825592 349.207184,215.685593 
	C346.333069,225.443344 343.013733,235.079163 340.040924,244.824341 
	C338.271729,250.624115 335.743408,256.218109 334.567444,262.194519 
	C333.346100,268.401764 331.273041,274.390045 329.908783,280.573547 
	C328.318481,287.781586 329.425720,295.416290 325.962585,302.349243 
	C324.449402,305.378448 324.510223,309.477600 325.927521,312.609711 
	C328.799866,318.957336 327.956940,325.926636 330.022858,332.447205 
	C331.220490,336.227325 333.389404,339.557220 334.445435,343.730286 
z"/>
<path  opacity="1.000000" stroke="none" 
	d="
M518.360474,716.792725 
	C512.065063,713.164246 506.059906,709.761475 500.028046,706.406738 
	C493.990387,703.048828 487.958191,699.678162 481.851685,696.449036 
	C480.232056,695.592651 478.890991,694.642395 479.090240,692.754883 
	C479.337799,690.409973 481.427643,690.585632 482.986145,690.712402 
	C486.705170,691.014893 489.846680,689.011292 492.893158,687.731812 
	C503.503113,683.275818 512.639648,686.902832 521.662842,691.800903 
	C530.748047,696.732666 539.144897,702.854858 548.736084,706.945007 
	C565.797119,714.220764 582.631470,722.035706 599.767578,729.124878 
	C612.903748,734.559326 625.844604,740.447083 638.964172,745.863464 
	C651.243347,750.933105 663.245972,756.553101 675.371094,761.928589 
	C675.818237,762.126831 676.207764,762.456116 676.622070,762.727539 
	C686.046814,768.904053 686.084412,771.486816 676.384338,777.066711 
	C673.382019,778.793884 672.068542,780.827942 672.235779,784.227966 
	C672.415527,787.884521 672.384399,791.565247 672.195862,795.222534 
	C671.985596,799.301453 669.383240,800.982361 665.546814,799.474915 
	C657.406128,796.276367 649.851196,791.935059 642.378479,787.417053 
	C631.104980,780.601074 619.796204,773.838745 608.391235,767.245911 
	C590.528015,756.919983 572.627930,746.655029 554.635559,736.556458 
	C542.734436,729.876709 530.644531,723.533386 518.360474,716.792725 
z"/>
<path  opacity="1.000000" stroke="none" 
	d="
M246.700806,712.635803 
	C255.084473,707.616699 262.979431,702.461975 271.196869,697.886536 
	C277.657013,694.289368 283.506958,689.597656 290.667755,687.209045 
	C295.994171,685.432190 301.090637,682.957092 306.433380,681.240784 
	C311.759796,679.529846 320.809204,681.078979 325.500641,688.246826 
	C260.888794,728.815369 196.843948,770.257996 125.313408,798.650696 
	C123.098717,795.050598 125.512238,793.199524 127.716644,791.575073 
	C144.768387,779.009888 161.569885,766.069458 179.084793,754.182129 
	C189.255020,747.279663 199.434662,740.252441 210.362686,734.448730 
	C215.882370,731.517273 220.981049,727.802368 226.343628,724.563477 
	C232.972885,720.559509 239.678467,716.682068 246.700806,712.635803 
z"/>
<path  opacity="1.000000" stroke="none" 
	d="
M558.353394,679.430054 
	C571.199158,684.083069 583.758301,688.378723 596.173340,693.056824 
	C605.484558,696.565369 614.419800,701.164490 623.873901,704.173889 
	C632.818726,707.021057 641.028564,711.395142 649.659485,714.856323 
	C662.862000,720.150757 675.897888,725.896973 688.798462,731.894409 
	C697.089111,735.748779 705.469788,739.508728 713.165405,744.568115 
	C716.498901,746.759827 718.278198,750.200745 720.498718,753.239014 
	C721.700867,754.883911 722.375427,757.444397 720.738403,759.299927 
	C719.234009,761.005066 716.921265,760.432617 715.093079,759.738037 
	C702.396545,754.914429 689.985413,749.395325 677.193542,744.766235 
	C665.162598,740.412598 653.561401,734.881592 641.715942,730.002502 
	C630.193420,725.256531 618.517517,720.875916 607.060059,715.981201 
	C591.927856,709.516541 576.581726,703.583679 561.515686,696.933777 
	C546.507874,690.309570 530.933044,684.965454 515.576050,679.140930 
	C512.660889,678.035278 512.383484,675.982178 513.126770,673.528198 
	C514.637634,668.540283 518.678528,666.865295 523.926392,668.104736 
	C535.610962,670.864380 546.554565,675.812012 558.353394,679.430054 
z"/>
<path  opacity="1.000000" stroke="none" 
	d="
M469.324829,715.639282 
	C464.637573,710.503540 460.151215,705.662415 455.761475,700.735168 
	C454.182526,698.962952 452.673157,696.996094 455.392212,694.642944 
	C460.762146,695.518677 464.033966,699.889771 468.124512,702.785217 
	C487.945831,716.815369 507.787628,730.831848 527.223999,745.384949 
	C538.660461,753.947998 550.486084,762.020874 561.088257,771.742371 
	C565.623779,775.901123 570.474121,779.840576 575.203430,783.851379 
	C580.946167,788.721497 582.667969,795.171509 582.115234,802.447998 
	C581.430420,811.463196 575.805786,814.796448 567.624817,811.330994 
	C556.029114,806.419189 548.479370,796.833557 540.098022,788.164734 
	C526.433289,774.031372 512.725159,759.940002 499.033081,745.833130 
	C491.115967,737.676147 483.206879,729.511353 475.265472,721.378174 
	C473.425079,719.493347 471.467499,717.722961 469.324829,715.639282 
z"/>
<path  opacity="1.000000" stroke="none" 
	d="
M468.287537,392.524780 
	C468.955383,391.214600 469.222992,389.756317 470.760345,390.134186 
	C472.164703,390.479401 472.102539,391.896271 472.120544,393.047333 
	C472.186859,397.293793 469.290222,400.609344 468.597443,404.778107 
	C467.384003,412.080353 464.584961,419.149445 465.009247,426.702301 
	C465.713623,439.241882 469.778015,450.698212 476.649384,461.188416 
	C482.529083,470.164673 487.462433,479.654663 491.008209,489.770813 
	C493.416809,496.642578 492.577087,503.845459 491.020081,510.735260 
	C489.757751,516.321167 479.393616,520.547607 474.468781,517.523499 
	C462.411926,510.119995 454.066711,500.479919 451.081451,485.595978 
	C449.385254,477.138855 448.553894,468.905365 449.007324,460.607483 
	C449.678345,448.327271 452.342682,436.349640 455.737244,424.411469 
	C458.044495,416.297150 461.663727,408.736938 463.901215,400.652039 
	C464.672577,397.864807 466.663910,395.415253 468.287537,392.524780 
z"/>
<path  opacity="1.000000" stroke="none" 
	d="
M270.655579,735.576233 
	C281.342285,728.334045 291.766602,721.343384 302.197845,714.363037 
	C312.101379,707.735840 321.965973,701.048401 331.955780,694.553833 
	C334.146973,693.129272 336.903687,690.284424 339.362701,692.486633 
	C342.080231,694.920227 339.050293,697.789307 337.808441,700.074524 
	C331.341949,711.974060 321.861847,721.424133 311.937103,730.350525 
	C304.606049,736.944092 296.155670,742.173462 288.235443,748.013855 
	C279.863647,754.187317 271.284119,759.973694 262.613434,765.663513 
	C252.182770,772.508240 241.587250,779.059753 230.425903,784.706421 
	C221.487366,789.228516 212.828888,794.303528 204.033661,799.110413 
	C202.500748,799.948242 201.129532,801.484314 198.752991,800.389893 
	C198.776657,796.259277 202.258163,794.217224 204.641632,791.929138 
	C211.404892,785.436401 218.320175,779.074341 225.187012,772.695129 
	C238.147461,760.654968 251.562393,749.251709 265.851624,738.853027 
	C267.321075,737.783691 268.879242,736.836304 270.655579,735.576233 
z"/>
<path  opacity="1.000000" stroke="none" 
	d="
M482.376099,323.565857 
	C485.485046,321.834381 487.343292,324.062073 488.819824,325.436920 
	C497.810608,333.808563 506.953064,342.279266 511.900208,353.767334 
	C514.493652,359.789734 517.156006,365.826294 518.899292,372.394073 
	C520.820801,379.633453 520.734070,387.060608 522.880615,394.211151 
	C524.803284,400.616058 521.367249,406.908203 519.892700,413.140594 
	C516.893982,425.815369 508.889648,435.746246 501.195862,445.803467 
	C499.595795,447.895081 497.304688,449.275726 495.792542,451.538727 
	C494.872650,452.915405 492.629486,452.992615 491.264740,451.798767 
	C483.252106,444.789154 483.733521,431.611237 491.437592,424.363953 
	C498.180603,418.020721 502.198944,410.245087 502.893585,400.453278 
	C503.586700,390.683533 499.848999,382.416870 496.786011,373.747681 
	C492.873230,362.673401 486.497925,352.795135 481.748688,342.174408 
	C479.269806,336.630859 479.550476,329.904663 482.376099,323.565857 
z"/>
<path  opacity="1.000000" stroke="none" 
	d="
M377.896545,795.697144 
	C372.568207,811.472229 367.414886,826.893250 362.357208,842.345581 
	C361.847870,843.901733 361.512360,845.273560 359.527588,845.078552 
	C357.346375,844.864258 356.854095,843.279541 356.950714,841.489868 
	C357.228119,836.352173 357.308167,831.178284 358.017365,826.095642 
	C358.968506,819.279480 357.785492,812.351501 358.855591,805.681030 
	C360.256470,796.948975 361.212860,788.143066 362.873016,779.418274 
	C364.703735,769.796936 368.319885,760.876587 371.130676,751.694702 
	C372.966125,745.698914 374.796753,739.569214 377.145630,733.645020 
	C379.363647,728.051025 380.737762,722.062073 382.800079,716.338806 
	C384.690460,711.092590 386.321838,705.753296 388.111450,700.469971 
	C388.316650,699.864258 388.675201,699.095215 389.182709,698.840698 
	C393.733582,696.558228 397.247375,700.800049 401.521454,700.953125 
	C403.859711,701.036926 403.836517,703.851624 403.838959,705.835999 
	C403.841003,707.492554 403.879486,709.240234 403.397614,710.790955 
	C400.876526,718.904175 400.812958,727.487671 397.563171,735.590393 
	C395.048431,741.860352 392.974518,748.501221 391.168060,755.142761 
	C388.982208,763.179138 386.255737,771.094604 383.298492,778.885986 
	C381.245361,784.295349 379.904388,789.888184 377.896545,795.697144 
z"/>
<path  opacity="1.000000" stroke="none" 
	d="
M614.665710,668.371948 
	C621.961243,670.743347 627.606323,675.307068 632.865234,679.928101 
	C639.716980,685.948730 646.176636,692.549133 651.059692,700.467590 
	C652.020630,702.025879 652.706177,703.234558 651.776367,705.322876 
	C612.862488,690.650024 573.978516,675.988403 534.518677,661.109680 
	C537.312744,658.159790 540.355530,657.176331 543.544983,656.922668 
	C556.339172,655.905029 569.285156,655.142090 581.918945,656.995056 
	C593.209351,658.650879 604.532837,661.584106 614.665710,668.371948 
z"/>
<path  opacity="1.000000" stroke="none" 
	d="
M343.059998,527.050537 
	C346.949585,515.930420 351.802521,505.858826 360.365601,498.007233 
	C362.715118,499.583252 362.740021,501.736359 361.907654,503.194305 
	C358.323578,509.471985 358.235077,516.872375 355.188965,523.265381 
	C350.856781,532.357361 348.778381,542.515564 342.218903,550.562927 
	C340.867493,552.220886 339.687622,553.966370 338.098541,555.473816 
	C333.094635,560.220581 329.575439,565.911194 328.005524,572.717163 
	C327.383453,575.413757 325.140381,577.390869 325.258575,580.563538 
	C325.535034,587.984741 329.439911,593.854309 332.942780,599.871277 
	C334.106232,601.869812 336.163635,603.301636 334.669067,606.008789 
	C331.762848,607.277527 330.565369,604.600037 328.778412,603.412109 
	C320.342560,597.804138 316.556610,589.350342 314.938751,579.811462 
	C313.985107,574.188843 317.168976,569.216553 318.712769,564.080933 
	C321.358276,555.280396 318.276550,551.605286 311.367798,552.204834 
	C304.362274,552.812805 304.833130,552.130798 302.376648,544.716614 
	C300.544617,539.187134 299.216370,533.877319 300.652985,528.215576 
	C301.854736,523.479431 302.633514,518.530334 305.553406,514.420044 
	C306.573303,512.984314 307.852325,511.263947 310.007935,512.079102 
	C311.762512,512.742554 313.227081,514.016968 313.212158,516.142822 
	C313.171234,521.978088 316.747437,526.396851 319.248413,531.154236 
	C322.363037,537.078857 328.143616,537.463745 333.991699,536.880066 
	C339.637634,536.316467 341.365479,531.915588 343.059998,527.050537 
z"/>
<path  opacity="1.000000" stroke="none" 
	d="
M248.429535,688.725342 
	C238.630814,691.759277 229.898331,696.415527 220.738602,700.017517 
	C219.313690,700.577881 218.051270,701.642822 216.701050,700.273376 
	C215.651642,699.208984 216.508530,698.011963 217.069824,697.078430 
	C223.397110,686.554504 230.517105,676.680237 241.352173,670.297058 
	C249.294083,665.618286 257.405060,661.416687 266.995148,660.859253 
	C271.896088,660.574463 276.524323,658.046997 281.701233,658.833801 
	C284.383057,659.241394 286.551727,659.852539 287.644287,663.254517 
	C282.035522,668.436340 275.515015,672.877869 268.936890,677.117981 
	C262.453003,681.297302 255.507584,684.760681 248.429535,688.725342 
z"/>
<path  opacity="1.000000" stroke="none" 
	d="
M484.147827,665.147705 
	C492.934570,655.296692 500.117371,644.934570 502.798981,632.072937 
	C503.241791,629.948914 504.453888,628.683838 506.473511,628.701538 
	C508.385773,628.718323 508.833893,630.546387 508.767456,632.008728 
	C508.580200,636.127930 511.149811,639.534729 511.323486,643.619629 
	C512.107239,662.054993 502.588928,677.057556 485.505463,683.473999 
	C479.246582,685.824768 471.788025,687.432190 464.521332,686.085571 
	C463.230621,685.846313 461.709229,685.967712 461.575775,684.111084 
	C461.455139,682.432678 462.262787,681.471985 463.826843,680.677795 
	C471.433044,676.815186 477.895905,671.404602 484.147827,665.147705 
z"/>
<path  opacity="1.000000" stroke="none" 
	d="
M556.075562,619.689941 
	C564.614441,619.113464 572.263306,619.857422 579.322327,624.557861 
	C582.045105,626.370911 582.143066,628.058228 580.215576,629.529419 
	C574.243225,634.087891 568.188232,638.304810 560.695984,640.626953 
	C551.788818,643.387634 542.798218,643.639465 533.729858,644.101501 
	C530.015259,644.290771 526.511169,643.424194 523.255005,641.654419 
	C527.533325,628.207825 540.110596,619.731689 556.075562,619.689941 
z"/>
<path  opacity="1.000000" stroke="none" 
	d="
M302.876648,579.750977 
	C301.335052,591.871704 308.898987,599.381165 315.737366,607.062500 
	C319.630127,611.435059 324.357697,615.054138 328.424347,619.286377 
	C330.622559,621.574097 332.501709,624.812195 331.060150,627.876770 
	C328.967743,632.325012 323.861786,631.312012 320.504944,630.926453 
	C302.493683,628.857971 293.003265,617.018799 292.530151,598.400757 
	C292.335388,590.737000 294.111816,584.104492 298.340210,577.947754 
	C299.191437,576.708374 300.373749,575.426331 302.009949,575.936279 
	C303.696014,576.461853 303.066284,578.092957 302.876648,579.750977 
z"/>
<path  opacity="1.000000" stroke="none" 
	d="
M471.786499,630.972473 
	C473.189178,620.487549 481.145691,614.945007 487.410095,608.303467 
	C491.329132,604.148499 495.143280,599.803650 499.888397,596.348450 
	C507.095123,614.060486 484.314392,659.568726 464.467804,665.641052 
	C471.949005,654.631836 477.144257,643.926086 471.786499,630.972473 
z"/>
<path  opacity="1.000000" stroke="none" 
	d="
M269.670135,562.270691 
	C263.742310,556.645569 262.949890,549.021423 261.547119,542.178223 
	C260.053192,534.890198 263.191498,527.512634 266.541595,520.932251 
	C269.677521,514.772705 274.074371,509.371155 280.619293,506.201569 
	C281.505585,505.772308 282.161163,504.924072 283.245300,505.446381 
	C284.599823,506.098999 284.227509,507.365204 284.298035,508.505096 
	C284.477020,511.397095 282.378906,513.407104 281.444427,515.859863 
	C279.062714,522.111023 278.782837,528.785217 277.511871,535.217651 
	C275.894653,543.402283 279.035309,551.239319 283.127655,558.349304 
	C284.902863,561.433594 286.685211,564.707031 289.683960,566.967102 
	C290.528900,567.603882 290.932343,568.567505 290.479370,569.619385 
	C289.894684,570.977234 288.604919,571.013428 287.486450,570.733521 
	C281.115387,569.139465 274.418579,568.188782 269.670135,562.270691 
z"/>
<path  opacity="1.000000" stroke="none" 
	d="
M526.429077,538.708862 
	C529.924744,545.378296 528.913513,552.292175 527.784241,558.556152 
	C526.592163,565.168335 523.539246,571.661194 517.962158,576.321838 
	C514.047302,579.593323 509.467102,581.254761 504.520844,582.007324 
	C503.254578,582.199890 501.738617,582.383423 500.859222,581.070007 
	C499.874176,579.598877 501.148346,578.652710 501.885834,577.581482 
	C503.765442,574.851318 505.524323,572.035522 507.464691,569.350281 
	C514.377625,559.783569 513.467651,548.698853 512.223877,538.172302 
	C511.552216,532.487976 508.639374,526.713318 506.568756,521.042358 
	C505.910919,519.240662 505.245972,517.685364 506.521179,515.594299 
	C516.105408,520.644531 523.305542,527.603638 526.429077,538.708862 
z"/>
<path  opacity="1.000000" stroke="none" 
	d="
M392.707642,247.996918 
	C392.553375,239.900711 392.173615,232.259369 396.932465,225.189728 
	C399.603546,227.441544 400.848358,230.641357 400.934814,233.443893 
	C401.260803,244.014023 404.977844,253.668350 408.433624,263.347687 
	C410.445374,268.982361 413.665039,274.188721 416.376801,279.569824 
	C419.886292,286.533936 417.938477,293.782135 418.088470,300.813965 
	C415.414886,301.766937 413.938934,301.102814 412.366791,299.392517 
	C403.791901,290.063965 398.829102,278.982086 395.052795,267.004669 
	C393.099091,260.808136 392.735107,254.756653 392.707642,247.996918 
z"/>
<path  opacity="1.000000" stroke="none" 
	d="
M294.225647,434.859070 
	C295.855438,447.206299 300.786041,457.889496 306.797852,468.111908 
	C308.436279,470.897858 310.122192,474.298157 307.171875,475.962860 
	C303.795715,477.867737 300.077850,480.949585 295.197113,478.070343 
	C288.551819,474.149994 286.317566,467.942841 285.785217,461.082794 
	C285.232727,453.963104 285.257507,446.735138 285.794983,439.612274 
	C286.327209,432.559174 290.700928,426.753113 293.606842,420.502472 
	C294.023407,419.606445 295.805420,419.345184 297.148376,418.697052 
	C297.267151,424.408112 294.511871,429.193390 294.225647,434.859070 
z"/>
</svg>